<svg xmlns="http://www.w3.org/2000/svg" viewBox="0 0 512 512">
  <rect width="512" height="512" fill="#d32f2f"/>
  <path d="M240.0,156.0 L239.7,174.6 L238.8,185.5 L237.2,194.4 L235.1,202.1 L232.3,208.9 L228.9,214.9 L224.9,220.3 L220.3,224.9 L214.9,228.9 L208.9,232.3 L202.1,235.1 L194.4,237.2 L185.5,238.8 L174.6,239.7 L156.0,240.0 L137.4,239.7 L126.5,238.8 L117.6,237.2 L109.9,235.1 L103.1,232.3 L97.1,228.9 L91.7,224.9 L87.1,220.3 L83.1,214.9 L79.7,208.9 L76.9,202.1 L74.8,194.4 L73.2,185.5 L72.3,174.6 L72.0,156.0 L72.3,137.4 L73.2,126.5 L74.8,117.6 L76.9,109.9 L79.7,103.1 L83.1,97.1 L87.1,91.7 L91.7,87.1 L97.1,83.1 L103.1,79.7 L109.9,76.9 L117.6,74.8 L126.5,73.2 L137.4,72.3 L156.0,72.0 L174.6,72.3 L185.5,73.2 L194.4,74.8 L202.1,76.9 L208.9,79.7 L214.9,83.1 L220.3,87.1 L224.9,91.7 L228.9,97.1 L232.3,103.1 L235.1,109.9 L237.2,117.6 L238.8,126.5 L239.7,137.4Z" fill="white" opacity="0.95"/>
  <path d="M440.0,156.0 L439.7,174.6 L438.8,185.5 L437.2,194.4 L435.1,202.1 L432.3,208.9 L428.9,214.9 L424.9,220.3 L420.3,224.9 L414.9,228.9 L408.9,232.3 L402.1,235.1 L394.4,237.2 L385.5,238.8 L374.6,239.7 L356.0,240.0 L337.4,239.7 L326.5,238.8 L317.6,237.2 L309.9,235.1 L303.1,232.3 L297.1,228.9 L291.7,224.9 L287.1,220.3 L283.1,214.9 L279.7,208.9 L276.9,202.1 L274.8,194.4 L273.2,185.5 L272.3,174.6 L272.0,156.0 L272.3,137.4 L273.2,126.5 L274.8,117.6 L276.9,109.9 L279.7,103.1 L283.1,97.1 L287.1,91.7 L291.7,87.1 L297.1,83.1 L303.1,79.7 L309.9,76.9 L317.6,74.8 L326.5,73.2 L337.4,72.3 L356.0,72.0 L374.6,72.3 L385.5,73.2 L394.4,74.8 L402.1,76.9 L408.9,79.7 L414.9,83.1 L420.3,87.1 L424.9,91.7 L428.9,97.1 L432.3,103.1 L435.1,109.9 L437.2,117.6 L438.8,126.5 L439.7,137.4Z" fill="white" opacity="0.7"/>
  <path d="M240.0,356.0 L239.7,374.6 L238.8,385.5 L237.2,394.4 L235.1,402.1 L232.3,408.9 L228.9,414.9 L224.9,420.3 L220.3,424.9 L214.9,428.9 L208.9,432.3 L202.1,435.1 L194.4,437.2 L185.5,438.8 L174.6,439.7 L156.0,440.0 L137.4,439.7 L126.5,438.8 L117.6,437.2 L109.9,435.1 L103.1,432.3 L97.1,428.9 L91.7,424.9 L87.1,420.3 L83.1,414.9 L79.7,408.9 L76.9,402.1 L74.8,394.4 L73.2,385.5 L72.3,374.6 L72.0,356.0 L72.3,337.4 L73.2,326.5 L74.8,317.6 L76.9,309.9 L79.7,303.1 L83.1,297.1 L87.1,291.7 L91.7,287.1 L97.1,283.1 L103.1,279.7 L109.9,276.9 L117.6,274.8 L126.5,273.2 L137.4,272.3 L156.0,272.0 L174.6,272.3 L185.5,273.2 L194.4,274.8 L202.1,276.9 L208.9,279.7 L214.9,283.1 L220.3,287.1 L224.9,291.7 L228.9,297.1 L232.3,303.1 L235.1,309.9 L237.2,317.6 L238.8,326.5 L239.7,337.4Z" fill="white" opacity="0.45"/>
  <path d="M440.0,356.0 L439.7,374.6 L438.8,385.5 L437.2,394.4 L435.1,402.1 L432.3,408.9 L428.9,414.9 L424.9,420.3 L420.3,424.9 L414.9,428.9 L408.9,432.3 L402.1,435.1 L394.4,437.2 L385.5,438.8 L374.6,439.7 L356.0,440.0 L337.4,439.7 L326.5,438.8 L317.6,437.2 L309.9,435.1 L303.1,432.3 L297.1,428.9 L291.7,424.9 L287.1,420.3 L283.1,414.9 L279.7,408.9 L276.9,402.1 L274.8,394.4 L273.2,385.5 L272.3,374.6 L272.0,356.0 L272.3,337.4 L273.2,326.5 L274.8,317.6 L276.9,309.9 L279.7,303.1 L283.1,297.1 L287.1,291.7 L291.7,287.1 L297.1,283.1 L303.1,279.7 L309.9,276.9 L317.6,274.8 L326.5,273.2 L337.4,272.3 L356.0,272.0 L374.6,272.3 L385.5,273.2 L394.4,274.8 L402.1,276.9 L408.9,279.7 L414.9,283.1 L420.3,287.1 L424.9,291.7 L428.9,297.1 L432.3,303.1 L435.1,309.9 L437.2,317.6 L438.8,326.5 L439.7,337.4Z" fill="white" opacity="0.2"/>
</svg>
