<svg xmlns="http://www.w3.org/2000/svg" viewBox="0 0 512 512">
  <rect width="512" height="512" fill="#d32f2f"/>
  <path d="M240.00,144.00L239.97,153.56L239.87,159.17L239.72,163.86L239.49,168.04L239.21,171.87L238.86,175.44L238.45,178.79L237.98,181.96L237.44,184.99L236.84,187.88L236.18,190.65L235.45,193.31L234.66,195.87L233.81,198.33L232.89,200.71L231.91,203.00L230.87,205.20L229.76,207.33L228.59,209.38L227.35,211.36L226.05,213.27L224.68,215.10L223.25,216.87L221.76,218.57L220.20,220.20L218.57,221.76L216.87,223.25L215.10,224.68L213.27,226.05L211.36,227.35L209.38,228.59L207.33,229.76L205.20,230.87L203.00,231.91L200.71,232.89L198.33,233.81L195.87,234.66L193.31,235.45L190.65,236.18L187.88,236.84L184.99,237.44L181.96,237.98L178.79,238.45L175.44,238.86L171.87,239.21L168.04,239.49L163.86,239.72L159.17,239.87L153.56,239.97L144.00,240.00L134.44,239.97L128.83,239.87L124.14,239.72L119.96,239.49L116.13,239.21L112.56,238.86L109.21,238.45L106.04,237.98L103.01,237.44L100.12,236.84L97.35,236.18L94.69,235.45L92.13,234.66L89.67,233.81L87.29,232.89L85.00,231.91L82.80,230.87L80.67,229.76L78.62,228.59L76.64,227.35L74.73,226.05L72.90,224.68L71.13,223.25L69.43,221.76L67.80,220.20L66.24,218.57L64.75,216.87L63.32,215.10L61.95,213.27L60.65,211.36L59.41,209.38L58.24,207.33L57.13,205.20L56.09,203.00L55.11,200.71L54.19,198.33L53.34,195.87L52.55,193.31L51.82,190.65L51.16,187.88L50.56,184.99L50.02,181.96L49.55,178.79L49.14,175.44L48.79,171.87L48.51,168.04L48.28,163.86L48.13,159.17L48.03,153.56L48.00,144.00L48.03,134.44L48.13,128.83L48.28,124.14L48.51,119.96L48.79,116.13L49.14,112.56L49.55,109.21L50.02,106.04L50.56,103.01L51.16,100.12L51.82,97.35L52.55,94.69L53.34,92.13L54.19,89.67L55.11,87.29L56.09,85.00L57.13,82.80L58.24,80.67L59.41,78.62L60.65,76.64L61.95,74.73L63.32,72.90L64.75,71.13L66.24,69.43L67.80,67.80L69.43,66.24L71.13,64.75L72.90,63.32L74.73,61.95L76.64,60.65L78.62,59.41L80.67,58.24L82.80,57.13L85.00,56.09L87.29,55.11L89.67,54.19L92.13,53.34L94.69,52.55L97.35,51.82L100.12,51.16L103.01,50.56L106.04,50.02L109.21,49.55L112.56,49.14L116.13,48.79L119.96,48.51L124.14,48.28L128.83,48.13L134.44,48.03L144.00,48.00L153.56,48.03L159.17,48.13L163.86,48.28L168.04,48.51L171.87,48.79L175.44,49.14L178.79,49.55L181.96,50.02L184.99,50.56L187.88,51.16L190.65,51.82L193.31,52.55L195.87,53.34L198.33,54.19L200.71,55.11L203.00,56.09L205.20,57.13L207.33,58.24L209.38,59.41L211.36,60.65L213.27,61.95L215.10,63.32L216.87,64.75L218.57,66.24L220.20,67.80L221.76,69.43L223.25,71.13L224.68,72.90L226.05,74.73L227.35,76.64L228.59,78.62L229.76,80.67L230.87,82.80L231.91,85.00L232.89,87.29L233.81,89.67L234.66,92.13L235.45,94.69L236.18,97.35L236.84,100.12L237.44,103.01L237.98,106.04L238.45,109.21L238.86,112.56L239.21,116.13L239.49,119.96L239.72,124.14L239.87,128.83L239.97,134.44L240.00,144.00Z" fill="white" opacity="0.95"/>
  <path d="M464.00,144.00L463.97,153.56L463.87,159.17L463.72,163.86L463.49,168.04L463.21,171.87L462.86,175.44L462.45,178.79L461.98,181.96L461.44,184.99L460.84,187.88L460.18,190.65L459.45,193.31L458.66,195.87L457.81,198.33L456.89,200.71L455.91,203.00L454.87,205.20L453.76,207.33L452.59,209.38L451.35,211.36L450.05,213.27L448.68,215.10L447.25,216.87L445.76,218.57L444.20,220.20L442.57,221.76L440.87,223.25L439.10,224.68L437.27,226.05L435.36,227.35L433.38,228.59L431.33,229.76L429.20,230.87L427.00,231.91L424.71,232.89L422.33,233.81L419.87,234.66L417.31,235.45L414.65,236.18L411.88,236.84L408.99,237.44L405.96,237.98L402.79,238.45L399.44,238.86L395.87,239.21L392.04,239.49L387.86,239.72L383.17,239.87L377.56,239.97L368.00,240.00L358.44,239.97L352.83,239.87L348.14,239.72L343.96,239.49L340.13,239.21L336.56,238.86L333.21,238.45L330.04,237.98L327.01,237.44L324.12,236.84L321.35,236.18L318.69,235.45L316.13,234.66L313.67,233.81L311.29,232.89L309.00,231.91L306.80,230.87L304.67,229.76L302.62,228.59L300.64,227.35L298.73,226.05L296.90,224.68L295.13,223.25L293.43,221.76L291.80,220.20L290.24,218.57L288.75,216.87L287.32,215.10L285.95,213.27L284.65,211.36L283.41,209.38L282.24,207.33L281.13,205.20L280.09,203.00L279.11,200.71L278.19,198.33L277.34,195.87L276.55,193.31L275.82,190.65L275.16,187.88L274.56,184.99L274.02,181.96L273.55,178.79L273.14,175.44L272.79,171.87L272.51,168.04L272.28,163.86L272.13,159.17L272.03,153.56L272.00,144.00L272.03,134.44L272.13,128.83L272.28,124.14L272.51,119.96L272.79,116.13L273.14,112.56L273.55,109.21L274.02,106.04L274.56,103.01L275.16,100.12L275.82,97.35L276.55,94.69L277.34,92.13L278.19,89.67L279.11,87.29L280.09,85.00L281.13,82.80L282.24,80.67L283.41,78.62L284.65,76.64L285.95,74.73L287.32,72.90L288.75,71.13L290.24,69.43L291.80,67.80L293.43,66.24L295.13,64.75L296.90,63.32L298.73,61.95L300.64,60.65L302.62,59.41L304.67,58.24L306.80,57.13L309.00,56.09L311.29,55.11L313.67,54.19L316.13,53.34L318.69,52.55L321.35,51.82L324.12,51.16L327.01,50.56L330.04,50.02L333.21,49.55L336.56,49.14L340.13,48.79L343.96,48.51L348.14,48.28L352.83,48.13L358.44,48.03L368.00,48.00L377.56,48.03L383.17,48.13L387.86,48.28L392.04,48.51L395.87,48.79L399.44,49.14L402.79,49.55L405.96,50.02L408.99,50.56L411.88,51.16L414.65,51.82L417.31,52.55L419.87,53.34L422.33,54.19L424.71,55.11L427.00,56.09L429.20,57.13L431.33,58.24L433.38,59.41L435.36,60.65L437.27,61.95L439.10,63.32L440.87,64.75L442.57,66.24L444.20,67.80L445.76,69.43L447.25,71.13L448.68,72.90L450.05,74.73L451.35,76.64L452.59,78.62L453.76,80.67L454.87,82.80L455.91,85.00L456.89,87.29L457.81,89.67L458.66,92.13L459.45,94.69L460.18,97.35L460.84,100.12L461.44,103.01L461.98,106.04L462.45,109.21L462.86,112.56L463.21,116.13L463.49,119.96L463.72,124.14L463.87,128.83L463.97,134.44L464.00,144.00Z" fill="white" opacity="0.7"/>
  <path d="M240.00,368.00L239.97,377.56L239.87,383.17L239.72,387.86L239.49,392.04L239.21,395.87L238.86,399.44L238.45,402.79L237.98,405.96L237.44,408.99L236.84,411.88L236.18,414.65L235.45,417.31L234.66,419.87L233.81,422.33L232.89,424.71L231.91,427.00L230.87,429.20L229.76,431.33L228.59,433.38L227.35,435.36L226.05,437.27L224.68,439.10L223.25,440.87L221.76,442.57L220.20,444.20L218.57,445.76L216.87,447.25L215.10,448.68L213.27,450.05L211.36,451.35L209.38,452.59L207.33,453.76L205.20,454.87L203.00,455.91L200.71,456.89L198.33,457.81L195.87,458.66L193.31,459.45L190.65,460.18L187.88,460.84L184.99,461.44L181.96,461.98L178.79,462.45L175.44,462.86L171.87,463.21L168.04,463.49L163.86,463.72L159.17,463.87L153.56,463.97L144.00,464.00L134.44,463.97L128.83,463.87L124.14,463.72L119.96,463.49L116.13,463.21L112.56,462.86L109.21,462.45L106.04,461.98L103.01,461.44L100.12,460.84L97.35,460.18L94.69,459.45L92.13,458.66L89.67,457.81L87.29,456.89L85.00,455.91L82.80,454.87L80.67,453.76L78.62,452.59L76.64,451.35L74.73,450.05L72.90,448.68L71.13,447.25L69.43,445.76L67.80,444.20L66.24,442.57L64.75,440.87L63.32,439.10L61.95,437.27L60.65,435.36L59.41,433.38L58.24,431.33L57.13,429.20L56.09,427.00L55.11,424.71L54.19,422.33L53.34,419.87L52.55,417.31L51.82,414.65L51.16,411.88L50.56,408.99L50.02,405.96L49.55,402.79L49.14,399.44L48.79,395.87L48.51,392.04L48.28,387.86L48.13,383.17L48.03,377.56L48.00,368.00L48.03,358.44L48.13,352.83L48.28,348.14L48.51,343.96L48.79,340.13L49.14,336.56L49.55,333.21L50.02,330.04L50.56,327.01L51.16,324.12L51.82,321.35L52.55,318.69L53.34,316.13L54.19,313.67L55.11,311.29L56.09,309.00L57.13,306.80L58.24,304.67L59.41,302.62L60.65,300.64L61.95,298.73L63.32,296.90L64.75,295.13L66.24,293.43L67.80,291.80L69.43,290.24L71.13,288.75L72.90,287.32L74.73,285.95L76.64,284.65L78.62,283.41L80.67,282.24L82.80,281.13L85.00,280.09L87.29,279.11L89.67,278.19L92.13,277.34L94.69,276.55L97.35,275.82L100.12,275.16L103.01,274.56L106.04,274.02L109.21,273.55L112.56,273.14L116.13,272.79L119.96,272.51L124.14,272.28L128.83,272.13L134.44,272.03L144.00,272.00L153.56,272.03L159.17,272.13L163.86,272.28L168.04,272.51L171.87,272.79L175.44,273.14L178.79,273.55L181.96,274.02L184.99,274.56L187.88,275.16L190.65,275.82L193.31,276.55L195.87,277.34L198.33,278.19L200.71,279.11L203.00,280.09L205.20,281.13L207.33,282.24L209.38,283.41L211.36,284.65L213.27,285.95L215.10,287.32L216.87,288.75L218.57,290.24L220.20,291.80L221.76,293.43L223.25,295.13L224.68,296.90L226.05,298.73L227.35,300.64L228.59,302.62L229.76,304.67L230.87,306.80L231.91,309.00L232.89,311.29L233.81,313.67L234.66,316.13L235.45,318.69L236.18,321.35L236.84,324.12L237.44,327.01L237.98,330.04L238.45,333.21L238.86,336.56L239.21,340.13L239.49,343.96L239.72,348.14L239.87,352.83L239.97,358.44L240.00,368.00Z" fill="white" opacity="0.45"/>
  <path d="M464.00,368.00L463.97,377.56L463.87,383.17L463.72,387.86L463.49,392.04L463.21,395.87L462.86,399.44L462.45,402.79L461.98,405.96L461.44,408.99L460.84,411.88L460.18,414.65L459.45,417.31L458.66,419.87L457.81,422.33L456.89,424.71L455.91,427.00L454.87,429.20L453.76,431.33L452.59,433.38L451.35,435.36L450.05,437.27L448.68,439.10L447.25,440.87L445.76,442.57L444.20,444.20L442.57,445.76L440.87,447.25L439.10,448.68L437.27,450.05L435.36,451.35L433.38,452.59L431.33,453.76L429.20,454.87L427.00,455.91L424.71,456.89L422.33,457.81L419.87,458.66L417.31,459.45L414.65,460.18L411.88,460.84L408.99,461.44L405.96,461.98L402.79,462.45L399.44,462.86L395.87,463.21L392.04,463.49L387.86,463.72L383.17,463.87L377.56,463.97L368.00,464.00L358.44,463.97L352.83,463.87L348.14,463.72L343.96,463.49L340.13,463.21L336.56,462.86L333.21,462.45L330.04,461.98L327.01,461.44L324.12,460.84L321.35,460.18L318.69,459.45L316.13,458.66L313.67,457.81L311.29,456.89L309.00,455.91L306.80,454.87L304.67,453.76L302.62,452.59L300.64,451.35L298.73,450.05L296.90,448.68L295.13,447.25L293.43,445.76L291.80,444.20L290.24,442.57L288.75,440.87L287.32,439.10L285.95,437.27L284.65,435.36L283.41,433.38L282.24,431.33L281.13,429.20L280.09,427.00L279.11,424.71L278.19,422.33L277.34,419.87L276.55,417.31L275.82,414.65L275.16,411.88L274.56,408.99L274.02,405.96L273.55,402.79L273.14,399.44L272.79,395.87L272.51,392.04L272.28,387.86L272.13,383.17L272.03,377.56L272.00,368.00L272.03,358.44L272.13,352.83L272.28,348.14L272.51,343.96L272.79,340.13L273.14,336.56L273.55,333.21L274.02,330.04L274.56,327.01L275.16,324.12L275.82,321.35L276.55,318.69L277.34,316.13L278.19,313.67L279.11,311.29L280.09,309.00L281.13,306.80L282.24,304.67L283.41,302.62L284.65,300.64L285.95,298.73L287.32,296.90L288.75,295.13L290.24,293.43L291.80,291.80L293.43,290.24L295.13,288.75L296.90,287.32L298.73,285.95L300.64,284.65L302.62,283.41L304.67,282.24L306.80,281.13L309.00,280.09L311.29,279.11L313.67,278.19L316.13,277.34L318.69,276.55L321.35,275.82L324.12,275.16L327.01,274.56L330.04,274.02L333.21,273.55L336.56,273.14L340.13,272.79L343.96,272.51L348.14,272.28L352.83,272.13L358.44,272.03L368.00,272.00L377.56,272.03L383.17,272.13L387.86,272.28L392.04,272.51L395.87,272.79L399.44,273.14L402.79,273.55L405.96,274.02L408.99,274.56L411.88,275.16L414.65,275.82L417.31,276.55L419.87,277.34L422.33,278.19L424.71,279.11L427.00,280.09L429.20,281.13L431.33,282.24L433.38,283.41L435.36,284.65L437.27,285.95L439.10,287.32L440.87,288.75L442.57,290.24L444.20,291.80L445.76,293.43L447.25,295.13L448.68,296.90L450.05,298.73L451.35,300.64L452.59,302.62L453.76,304.67L454.87,306.80L455.91,309.00L456.89,311.29L457.81,313.67L458.66,316.13L459.45,318.69L460.18,321.35L460.84,324.12L461.44,327.01L461.98,330.04L462.45,333.21L462.86,336.56L463.21,340.13L463.49,343.96L463.72,348.14L463.87,352.83L463.97,358.44L464.00,368.00Z" fill="white" opacity="0.2"/>
</svg>
