<svg xmlns="http://www.w3.org/2000/svg" viewBox="0 0 512 512">
  <rect width="512" height="512" fill="#d32f2f"/>
  <path d="M240.0,156.0 L239.6,169.8 L238.5,179.9 L236.7,188.8 L234.1,196.9 L230.9,204.2 L226.9,210.9 L222.2,216.9 L216.9,222.2 L210.9,226.9 L204.2,230.9 L196.9,234.1 L188.8,236.7 L179.9,238.5 L169.8,239.6 L156.0,240.0 L142.2,239.6 L132.1,238.5 L123.2,236.7 L115.1,234.1 L107.8,230.9 L101.1,226.9 L95.1,222.2 L89.8,216.9 L85.1,210.9 L81.1,204.2 L77.9,196.9 L75.3,188.8 L73.5,179.9 L72.4,169.8 L72.0,156.0 L72.4,142.2 L73.5,132.1 L75.3,123.2 L77.9,115.1 L81.1,107.8 L85.1,101.1 L89.8,95.1 L95.1,89.8 L101.1,85.1 L107.8,81.1 L115.1,77.9 L123.2,75.3 L132.1,73.5 L142.2,72.4 L156.0,72.0 L169.8,72.4 L179.9,73.5 L188.8,75.3 L196.9,77.9 L204.2,81.1 L210.9,85.1 L216.9,89.8 L222.2,95.1 L226.9,101.1 L230.9,107.8 L234.1,115.1 L236.7,123.2 L238.5,132.1 L239.6,142.2Z" fill="white" opacity="0.95"/>
  <path d="M440.0,156.0 L439.6,169.8 L438.5,179.9 L436.7,188.8 L434.1,196.9 L430.9,204.2 L426.9,210.9 L422.2,216.9 L416.9,222.2 L410.9,226.9 L404.2,230.9 L396.9,234.1 L388.8,236.7 L379.9,238.5 L369.8,239.6 L356.0,240.0 L342.2,239.6 L332.1,238.5 L323.2,236.7 L315.1,234.1 L307.8,230.9 L301.1,226.9 L295.1,222.2 L289.8,216.9 L285.1,210.9 L281.1,204.2 L277.9,196.9 L275.3,188.8 L273.5,179.9 L272.4,169.8 L272.0,156.0 L272.4,142.2 L273.5,132.1 L275.3,123.2 L277.9,115.1 L281.1,107.8 L285.1,101.1 L289.8,95.1 L295.1,89.8 L301.1,85.1 L307.8,81.1 L315.1,77.9 L323.2,75.3 L332.1,73.5 L342.2,72.4 L356.0,72.0 L369.8,72.4 L379.9,73.5 L388.8,75.3 L396.9,77.9 L404.2,81.1 L410.9,85.1 L416.9,89.8 L422.2,95.1 L426.9,101.1 L430.9,107.8 L434.1,115.1 L436.7,123.2 L438.5,132.1 L439.6,142.2Z" fill="white" opacity="0.7"/>
  <path d="M240.0,356.0 L239.6,369.8 L238.5,379.9 L236.7,388.8 L234.1,396.9 L230.9,404.2 L226.9,410.9 L222.2,416.9 L216.9,422.2 L210.9,426.9 L204.2,430.9 L196.9,434.1 L188.8,436.7 L179.9,438.5 L169.8,439.6 L156.0,440.0 L142.2,439.6 L132.1,438.5 L123.2,436.7 L115.1,434.1 L107.8,430.9 L101.1,426.9 L95.1,422.2 L89.8,416.9 L85.1,410.9 L81.1,404.2 L77.9,396.9 L75.3,388.8 L73.5,379.9 L72.4,369.8 L72.0,356.0 L72.4,342.2 L73.5,332.1 L75.3,323.2 L77.9,315.1 L81.1,307.8 L85.1,301.1 L89.8,295.1 L95.1,289.8 L101.1,285.1 L107.8,281.1 L115.1,277.9 L123.2,275.3 L132.1,273.5 L142.2,272.4 L156.0,272.0 L169.8,272.4 L179.9,273.5 L188.8,275.3 L196.9,277.9 L204.2,281.1 L210.9,285.1 L216.9,289.8 L222.2,295.1 L226.9,301.1 L230.9,307.8 L234.1,315.1 L236.7,323.2 L238.5,332.1 L239.6,342.2Z" fill="white" opacity="0.45"/>
  <path d="M440.0,356.0 L439.6,369.8 L438.5,379.9 L436.7,388.8 L434.1,396.9 L430.9,404.2 L426.9,410.9 L422.2,416.9 L416.9,422.2 L410.9,426.9 L404.2,430.9 L396.9,434.1 L388.8,436.7 L379.9,438.5 L369.8,439.6 L356.0,440.0 L342.2,439.6 L332.1,438.5 L323.2,436.7 L315.1,434.1 L307.8,430.9 L301.1,426.9 L295.1,422.2 L289.8,416.9 L285.1,410.9 L281.1,404.2 L277.9,396.9 L275.3,388.8 L273.5,379.9 L272.4,369.8 L272.0,356.0 L272.4,342.2 L273.5,332.1 L275.3,323.2 L277.9,315.1 L281.1,307.8 L285.1,301.1 L289.8,295.1 L295.1,289.8 L301.1,285.1 L307.8,281.1 L315.1,277.9 L323.2,275.3 L332.1,273.5 L342.2,272.4 L356.0,272.0 L369.8,272.4 L379.9,273.5 L388.8,275.3 L396.9,277.9 L404.2,281.1 L410.9,285.1 L416.9,289.8 L422.2,295.1 L426.9,301.1 L430.9,307.8 L434.1,315.1 L436.7,323.2 L438.5,332.1 L439.6,342.2Z" fill="white" opacity="0.2"/>
</svg>
