<svg xmlns="http://www.w3.org/2000/svg" viewBox="0 0 32 32"><path d="M30.0,16.0 L29.9,19.1 L29.8,20.9 L29.5,22.4 L29.2,23.7 L28.7,24.8 L28.2,25.8 L27.5,26.7 L26.7,27.5 L25.8,28.2 L24.8,28.7 L23.7,29.2 L22.4,29.5 L20.9,29.8 L19.1,29.9 L16.0,30.0 L12.9,29.9 L11.1,29.8 L9.6,29.5 L8.3,29.2 L7.2,28.7 L6.2,28.2 L5.3,27.5 L4.5,26.7 L3.8,25.8 L3.3,24.8 L2.8,23.7 L2.5,22.4 L2.2,20.9 L2.1,19.1 L2.0,16.0 L2.1,12.9 L2.2,11.1 L2.5,9.6 L2.8,8.3 L3.3,7.2 L3.8,6.2 L4.5,5.3 L5.3,4.5 L6.2,3.8 L7.2,3.3 L8.3,2.8 L9.6,2.5 L11.1,2.2 L12.9,2.1 L16.0,2.0 L19.1,2.1 L20.9,2.2 L22.4,2.5 L23.7,2.8 L24.8,3.3 L25.8,3.8 L26.7,4.5 L27.5,5.3 L28.2,6.2 L28.7,7.2 L29.2,8.3 L29.5,9.6 L29.8,11.1 L29.9,12.9Z" fill="#d32f2f"/></svg>
